<?xml version="1.0" encoding="utf-8"?>
<!-- Generator: Adobe Illustrator 23.1.1, SVG Export Plug-In . SVG Version: 6.00 Build 0)  -->
<svg version="1.1" id="Layer_1" xmlns="http://www.w3.org/2000/svg" xmlns:xlink="http://www.w3.org/1999/xlink" x="0px" y="0px"
	 viewBox="0 0 80 80" style="enable-background:new 0 0 80 80;" xml:space="preserve">
<style type="text/css">
	.st0{fill:#A12885;}
	.st1{fill:#FFFFFF;}
</style>
<title>Icon/Cards/YaVas/Hover</title>
<desc>Created with Sketch.</desc>
<g>
	<circle id="Oval" class="st0" cx="40" cy="40" r="40"/>
</g>
<g>
	<g>
		<g>
			<polygon class="st1" points="14.3,40.3 9,32.2 12.9,32.2 15.9,37.5 19,32.2 22.7,32.2 17.4,40.3 17.4,46.3 14.3,46.3 			"/>
			<path class="st1" d="M25.8,32.2h2.6l6.1,14.1H31l-1.2-3h-5.5l-1.2,3h-3.4L25.8,32.2z M27,36.3l-1.7,4.4h3.4L27,36.3z"/>
			<polygon class="st1" points="35.4,32.2 38.9,32.2 42.4,41.5 42.4,41.5 46,32.2 49.3,32.2 43.5,46.3 41,46.3 			"/>
			<path class="st1" d="M52.4,32.2h2.6l6.1,14.1h-3.5l-1.2-3h-5.5l-1.2,3h-3.4L52.4,32.2z M53.6,36.3l-1.7,4.4h3.4L53.6,36.3z"/>
			<path class="st1" d="M68.9,35.9c-0.5-0.6-1.4-0.9-2.1-0.9c-0.8,0-2,0.4-2,1.4c0,2.4,6.2,0.9,6.2,5.6c0,3-2.4,4.4-5.2,4.4
				c-1.7,0-3.2-0.5-4.5-1.7l2.1-2.3c0.6,0.8,1.6,1.3,2.6,1.3c1,0,2-0.5,2-1.4c0-2.5-6.3-1.1-6.3-5.6c0-2.9,2.5-4.3,5.1-4.3
				c1.5,0,3,0.4,4.1,1.4L68.9,35.9z"/>
		</g>
	</g>
</g>
</svg>
